<svg id="visual" viewBox="0 0 900 600" width="900" height="600" xmlns="http://www.w3.org/2000/svg" xmlns:xlink="http://www.w3.org/1999/xlink" version="1.1"><rect x="0" y="0" width="900" height="600" fill="#001220"></rect><path d="M0 269L13.7 274.8C27.3 280.7 54.7 292.3 82 301.5C109.3 310.7 136.7 317.3 163.8 328.7C191 340 218 356 245.2 347.8C272.3 339.7 299.7 307.3 327 286.5C354.3 265.7 381.7 256.3 409 254.8C436.3 253.3 463.7 259.7 491 273C518.3 286.3 545.7 306.7 573 309.3C600.3 312 627.7 297 654.8 304C682 311 709 340 736.2 344.7C763.3 349.3 790.7 329.7 818 315.2C845.3 300.7 872.7 291.3 886.3 286.7L900 282L900 601L886.3 601C872.7 601 845.3 601 818 601C790.7 601 763.3 601 736.2 601C709 601 682 601 654.8 601C627.7 601 600.3 601 573 601C545.7 601 518.3 601 491 601C463.7 601 436.3 601 409 601C381.7 601 354.3 601 327 601C299.7 601 272.3 601 245.2 601C218 601 191 601 163.8 601C136.7 601 109.3 601 82 601C54.7 601 27.3 601 13.7 601L0 601Z" fill="#875f41"></path><path d="M0 376L13.7 376.8C27.3 377.7 54.7 379.3 82 365.2C109.3 351 136.7 321 163.8 325.5C191 330 218 369 245.2 385.7C272.3 402.3 299.7 396.7 327 387.7C354.3 378.7 381.7 366.3 409 368.2C436.3 370 463.7 386 491 388.8C518.3 391.7 545.7 381.3 573 363C600.3 344.7 627.7 318.3 654.8 307.8C682 297.3 709 302.7 736.2 312.3C763.3 322 790.7 336 818 343.7C845.3 351.3 872.7 352.7 886.3 353.3L900 354L900 601L886.3 601C872.7 601 845.3 601 818 601C790.7 601 763.3 601 736.2 601C709 601 682 601 654.8 601C627.7 601 600.3 601 573 601C545.7 601 518.3 601 491 601C463.7 601 436.3 601 409 601C381.7 601 354.3 601 327 601C299.7 601 272.3 601 245.2 601C218 601 191 601 163.8 601C136.7 601 109.3 601 82 601C54.7 601 27.3 601 13.7 601L0 601Z" fill="#985c33"></path><path d="M0 403L13.7 404.8C27.3 406.7 54.7 410.3 82 408.3C109.3 406.3 136.7 398.7 163.8 398.2C191 397.7 218 404.3 245.2 398.5C272.3 392.7 299.7 374.3 327 370.2C354.3 366 381.7 376 409 376.5C436.3 377 463.7 368 491 366C518.3 364 545.7 369 573 377.3C600.3 385.7 627.7 397.3 654.8 399.5C682 401.7 709 394.3 736.2 397.7C763.3 401 790.7 415 818 416C845.3 417 872.7 405 886.3 399L900 393L900 601L886.3 601C872.7 601 845.3 601 818 601C790.7 601 763.3 601 736.2 601C709 601 682 601 654.8 601C627.7 601 600.3 601 573 601C545.7 601 518.3 601 491 601C463.7 601 436.3 601 409 601C381.7 601 354.3 601 327 601C299.7 601 272.3 601 245.2 601C218 601 191 601 163.8 601C136.7 601 109.3 601 82 601C54.7 601 27.3 601 13.7 601L0 601Z" fill="#a95726"></path><path d="M0 387L13.7 393.3C27.3 399.7 54.7 412.3 82 414.5C109.3 416.7 136.7 408.3 163.8 416.3C191 424.3 218 448.7 245.2 457.2C272.3 465.7 299.7 458.3 327 443.8C354.3 429.3 381.7 407.7 409 398.3C436.3 389 463.7 392 491 392.3C518.3 392.7 545.7 390.3 573 392.5C600.3 394.7 627.7 401.3 654.8 401.8C682 402.3 709 396.7 736.2 403.7C763.3 410.7 790.7 430.3 818 433C845.3 435.7 872.7 421.3 886.3 414.2L900 407L900 601L886.3 601C872.7 601 845.3 601 818 601C790.7 601 763.3 601 736.2 601C709 601 682 601 654.8 601C627.7 601 600.3 601 573 601C545.7 601 518.3 601 491 601C463.7 601 436.3 601 409 601C381.7 601 354.3 601 327 601C299.7 601 272.3 601 245.2 601C218 601 191 601 163.8 601C136.7 601 109.3 601 82 601C54.7 601 27.3 601 13.7 601L0 601Z" fill="#bb501a"></path><path d="M0 467L13.7 464.2C27.3 461.3 54.7 455.7 82 451.8C109.3 448 136.7 446 163.8 449C191 452 218 460 245.2 462.2C272.3 464.3 299.7 460.7 327 459.7C354.3 458.7 381.7 460.3 409 462.2C436.3 464 463.7 466 491 464.5C518.3 463 545.7 458 573 455.3C600.3 452.7 627.7 452.3 654.8 457.2C682 462 709 472 736.2 468.7C763.3 465.3 790.7 448.7 818 446.7C845.3 444.7 872.7 457.3 886.3 463.7L900 470L900 601L886.3 601C872.7 601 845.3 601 818 601C790.7 601 763.3 601 736.2 601C709 601 682 601 654.8 601C627.7 601 600.3 601 573 601C545.7 601 518.3 601 491 601C463.7 601 436.3 601 409 601C381.7 601 354.3 601 327 601C299.7 601 272.3 601 245.2 601C218 601 191 601 163.8 601C136.7 601 109.3 601 82 601C54.7 601 27.3 601 13.7 601L0 601Z" fill="#ce450e"></path><path d="M0 491L13.7 493.3C27.3 495.7 54.7 500.3 82 499C109.3 497.7 136.7 490.3 163.8 485.7C191 481 218 479 245.2 478.2C272.3 477.3 299.7 477.7 327 482C354.3 486.3 381.7 494.7 409 505C436.3 515.3 463.7 527.7 491 532C518.3 536.3 545.7 532.7 573 532.5C600.3 532.3 627.7 535.7 654.8 529.8C682 524 709 509 736.2 501C763.3 493 790.7 492 818 497C845.3 502 872.7 513 886.3 518.5L900 524L900 601L886.3 601C872.7 601 845.3 601 818 601C790.7 601 763.3 601 736.2 601C709 601 682 601 654.8 601C627.7 601 600.3 601 573 601C545.7 601 518.3 601 491 601C463.7 601 436.3 601 409 601C381.7 601 354.3 601 327 601C299.7 601 272.3 601 245.2 601C218 601 191 601 163.8 601C136.7 601 109.3 601 82 601C54.7 601 27.3 601 13.7 601L0 601Z" fill="#e23303"></path><path d="M0 530L13.7 536.7C27.3 543.3 54.7 556.7 82 555.8C109.3 555 136.7 540 163.8 539.7C191 539.3 218 553.7 245.2 560.8C272.3 568 299.7 568 327 565.2C354.3 562.3 381.7 556.7 409 554.2C436.3 551.7 463.7 552.3 491 548.5C518.3 544.7 545.7 536.3 573 538.5C600.3 540.7 627.7 553.3 654.8 557.3C682 561.3 709 556.7 736.2 552.2C763.3 547.7 790.7 543.3 818 541.3C845.3 539.3 872.7 539.7 886.3 539.8L900 540L900 601L886.3 601C872.7 601 845.3 601 818 601C790.7 601 763.3 601 736.2 601C709 601 682 601 654.8 601C627.7 601 600.3 601 573 601C545.7 601 518.3 601 491 601C463.7 601 436.3 601 409 601C381.7 601 354.3 601 327 601C299.7 601 272.3 601 245.2 601C218 601 191 601 163.8 601C136.7 601 109.3 601 82 601C54.7 601 27.3 601 13.7 601L0 601Z" fill="#f60000"></path></svg>