<svg id="visual" viewBox="0 0 900 600" width="900" height="600" xmlns="http://www.w3.org/2000/svg" xmlns:xlink="http://www.w3.org/1999/xlink" version="1.1"><rect x="0" y="0" width="900" height="600" fill="#001220"></rect><path d="M0 130L13.7 133.7C27.3 137.3 54.7 144.7 82 149.3C109.3 154 136.7 156 163.8 154.8C191 153.7 218 149.3 245.2 144.3C272.3 139.3 299.7 133.7 327 137C354.3 140.3 381.7 152.7 409 161.7C436.3 170.7 463.7 176.3 491 181.7C518.3 187 545.7 192 573 186.8C600.3 181.7 627.7 166.3 654.8 155.8C682 145.3 709 139.7 736.2 137.7C763.3 135.7 790.7 137.3 818 137.5C845.3 137.7 872.7 136.3 886.3 135.7L900 135L900 0L886.3 0C872.7 0 845.3 0 818 0C790.7 0 763.3 0 736.2 0C709 0 682 0 654.8 0C627.7 0 600.3 0 573 0C545.7 0 518.3 0 491 0C463.7 0 436.3 0 409 0C381.7 0 354.3 0 327 0C299.7 0 272.3 0 245.2 0C218 0 191 0 163.8 0C136.7 0 109.3 0 82 0C54.7 0 27.3 0 13.7 0L0 0Z" fill="#875f41"></path><path d="M0 168L13.7 163.2C27.3 158.3 54.7 148.7 82 141.8C109.3 135 136.7 131 163.8 135.3C191 139.7 218 152.3 245.2 155.8C272.3 159.3 299.7 153.7 327 150.7C354.3 147.7 381.7 147.3 409 142.7C436.3 138 463.7 129 491 131.5C518.3 134 545.7 148 573 152.7C600.3 157.3 627.7 152.7 654.8 148.5C682 144.3 709 140.7 736.2 134.8C763.3 129 790.7 121 818 120.2C845.3 119.3 872.7 125.7 886.3 128.8L900 132L900 0L886.3 0C872.7 0 845.3 0 818 0C790.7 0 763.3 0 736.2 0C709 0 682 0 654.8 0C627.7 0 600.3 0 573 0C545.7 0 518.3 0 491 0C463.7 0 436.3 0 409 0C381.7 0 354.3 0 327 0C299.7 0 272.3 0 245.2 0C218 0 191 0 163.8 0C136.7 0 109.3 0 82 0C54.7 0 27.3 0 13.7 0L0 0Z" fill="#985c33"></path><path d="M0 144L13.7 142C27.3 140 54.7 136 82 127.3C109.3 118.7 136.7 105.3 163.8 103.3C191 101.3 218 110.7 245.2 112.2C272.3 113.7 299.7 107.3 327 102.5C354.3 97.7 381.7 94.3 409 97.3C436.3 100.3 463.7 109.7 491 117.8C518.3 126 545.7 133 573 131.2C600.3 129.3 627.7 118.7 654.8 116.7C682 114.7 709 121.3 736.2 124.3C763.3 127.3 790.7 126.7 818 128.8C845.3 131 872.7 136 886.3 138.5L900 141L900 0L886.3 0C872.7 0 845.3 0 818 0C790.7 0 763.3 0 736.2 0C709 0 682 0 654.8 0C627.7 0 600.3 0 573 0C545.7 0 518.3 0 491 0C463.7 0 436.3 0 409 0C381.7 0 354.3 0 327 0C299.7 0 272.3 0 245.2 0C218 0 191 0 163.8 0C136.7 0 109.3 0 82 0C54.7 0 27.3 0 13.7 0L0 0Z" fill="#a95726"></path><path d="M0 99L13.7 99.2C27.3 99.3 54.7 99.7 82 101C109.3 102.3 136.7 104.7 163.8 103.8C191 103 218 99 245.2 100.2C272.3 101.3 299.7 107.7 327 110.3C354.3 113 381.7 112 409 105.7C436.3 99.3 463.7 87.7 491 86.2C518.3 84.7 545.7 93.3 573 93.7C600.3 94 627.7 86 654.8 88.2C682 90.3 709 102.7 736.2 108.3C763.3 114 790.7 113 818 108.5C845.3 104 872.7 96 886.3 92L900 88L900 0L886.3 0C872.7 0 845.3 0 818 0C790.7 0 763.3 0 736.2 0C709 0 682 0 654.8 0C627.7 0 600.3 0 573 0C545.7 0 518.3 0 491 0C463.7 0 436.3 0 409 0C381.7 0 354.3 0 327 0C299.7 0 272.3 0 245.2 0C218 0 191 0 163.8 0C136.7 0 109.3 0 82 0C54.7 0 27.3 0 13.7 0L0 0Z" fill="#bb501a"></path><path d="M0 93L13.7 89.2C27.3 85.3 54.7 77.7 82 76.7C109.3 75.7 136.7 81.3 163.8 79C191 76.7 218 66.3 245.2 63.5C272.3 60.7 299.7 65.3 327 64.8C354.3 64.3 381.7 58.7 409 62.5C436.3 66.3 463.7 79.7 491 85.2C518.3 90.7 545.7 88.3 573 82.7C600.3 77 627.7 68 654.8 68.2C682 68.3 709 77.7 736.2 80C763.3 82.3 790.7 77.7 818 78.5C845.3 79.3 872.7 85.7 886.3 88.8L900 92L900 0L886.3 0C872.7 0 845.3 0 818 0C790.7 0 763.3 0 736.2 0C709 0 682 0 654.8 0C627.7 0 600.3 0 573 0C545.7 0 518.3 0 491 0C463.7 0 436.3 0 409 0C381.7 0 354.3 0 327 0C299.7 0 272.3 0 245.2 0C218 0 191 0 163.8 0C136.7 0 109.3 0 82 0C54.7 0 27.3 0 13.7 0L0 0Z" fill="#ce450e"></path><path d="M0 46L13.7 48.2C27.3 50.3 54.7 54.7 82 56.3C109.3 58 136.7 57 163.8 55.5C191 54 218 52 245.2 50.5C272.3 49 299.7 48 327 46.8C354.3 45.7 381.7 44.3 409 42.2C436.3 40 463.7 37 491 38C518.3 39 545.7 44 573 49.8C600.3 55.7 627.7 62.3 654.8 59.8C682 57.3 709 45.7 736.2 45.8C763.3 46 790.7 58 818 58.3C845.3 58.7 872.7 47.3 886.3 41.7L900 36L900 0L886.3 0C872.7 0 845.3 0 818 0C790.7 0 763.3 0 736.2 0C709 0 682 0 654.8 0C627.7 0 600.3 0 573 0C545.7 0 518.3 0 491 0C463.7 0 436.3 0 409 0C381.7 0 354.3 0 327 0C299.7 0 272.3 0 245.2 0C218 0 191 0 163.8 0C136.7 0 109.3 0 82 0C54.7 0 27.3 0 13.7 0L0 0Z" fill="#e23303"></path><path d="M0 24L13.7 22.7C27.3 21.3 54.7 18.7 82 21.3C109.3 24 136.7 32 163.8 35.7C191 39.3 218 38.7 245.2 34.7C272.3 30.7 299.7 23.3 327 19.3C354.3 15.3 381.7 14.7 409 15.8C436.3 17 463.7 20 491 20.2C518.3 20.3 545.7 17.7 573 20.3C600.3 23 627.7 31 654.8 31C682 31 709 23 736.2 19.3C763.3 15.7 790.7 16.3 818 21C845.3 25.7 872.7 34.3 886.3 38.7L900 43L900 0L886.3 0C872.7 0 845.3 0 818 0C790.7 0 763.3 0 736.2 0C709 0 682 0 654.8 0C627.7 0 600.3 0 573 0C545.7 0 518.3 0 491 0C463.7 0 436.3 0 409 0C381.7 0 354.3 0 327 0C299.7 0 272.3 0 245.2 0C218 0 191 0 163.8 0C136.7 0 109.3 0 82 0C54.7 0 27.3 0 13.7 0L0 0Z" fill="#f60000"></path></svg>