<svg id="visual" viewBox="0 0 900 600" width="900" height="600" xmlns="http://www.w3.org/2000/svg" xmlns:xlink="http://www.w3.org/1999/xlink" version="1.1"><path d="M0 37L13.7 40C27.3 43 54.7 49 82 51C109.3 53 136.7 51 163.8 49C191 47 218 45 245.2 44C272.3 43 299.7 43 327 44C354.3 45 381.7 47 409 47C436.3 47 463.7 45 491 44C518.3 43 545.7 43 573 46C600.3 49 627.7 55 654.8 61C682 67 709 73 736.2 72C763.3 71 790.7 63 818 61C845.3 59 872.7 63 886.3 65L900 67L900 0L886.3 0C872.7 0 845.3 0 818 0C790.7 0 763.3 0 736.2 0C709 0 682 0 654.8 0C627.7 0 600.3 0 573 0C545.7 0 518.3 0 491 0C463.7 0 436.3 0 409 0C381.7 0 354.3 0 327 0C299.7 0 272.3 0 245.2 0C218 0 191 0 163.8 0C136.7 0 109.3 0 82 0C54.7 0 27.3 0 13.7 0L0 0Z" fill="#a74574"></path><path d="M0 97L13.7 100C27.3 103 54.7 109 82 111C109.3 113 136.7 111 163.8 111C191 111 218 113 245.2 116C272.3 119 299.7 123 327 121C354.3 119 381.7 111 409 111C436.3 111 463.7 119 491 115C518.3 111 545.7 95 573 97C600.3 99 627.7 119 654.8 130C682 141 709 143 736.2 139C763.3 135 790.7 125 818 126C845.3 127 872.7 139 886.3 145L900 151L900 65L886.3 63C872.7 61 845.3 57 818 59C790.7 61 763.3 69 736.2 70C709 71 682 65 654.8 59C627.7 53 600.3 47 573 44C545.7 41 518.3 41 491 42C463.7 43 436.3 45 409 45C381.7 45 354.3 43 327 42C299.7 41 272.3 41 245.2 42C218 43 191 45 163.8 47C136.7 49 109.3 51 82 49C54.7 47 27.3 41 13.7 38L0 35Z" fill="#de649f"></path><path d="M0 217L13.7 214C27.3 211 54.7 205 82 207C109.3 209 136.7 219 163.8 213C191 207 218 185 245.2 184C272.3 183 299.7 203 327 210C354.3 217 381.7 211 409 208C436.3 205 463.7 205 491 194C518.3 183 545.7 161 573 161C600.3 161 627.7 183 654.8 198C682 213 709 221 736.2 214C763.3 207 790.7 185 818 186C845.3 187 872.7 211 886.3 223L900 235L900 149L886.3 143C872.7 137 845.3 125 818 124C790.7 123 763.3 133 736.2 137C709 141 682 139 654.8 128C627.7 117 600.3 97 573 95C545.7 93 518.3 109 491 113C463.7 117 436.3 109 409 109C381.7 109 354.3 117 327 119C299.7 121 272.3 117 245.2 114C218 111 191 109 163.8 109C136.7 109 109.3 111 82 109C54.7 107 27.3 101 13.7 98L0 95Z" fill="#eb96bd"></path><path d="M0 445L13.7 442C27.3 439 54.7 433 82 424C109.3 415 136.7 403 163.8 375C191 347 218 303 245.2 294C272.3 285 299.7 311 327 315C354.3 319 381.7 301 409 292C436.3 283 463.7 283 491 284C518.3 285 545.7 287 573 298C600.3 309 627.7 329 654.8 334C682 339 709 329 736.2 322C763.3 315 790.7 311 818 319C845.3 327 872.7 347 886.3 357L900 367L900 233L886.3 221C872.7 209 845.3 185 818 184C790.7 183 763.3 205 736.2 212C709 219 682 211 654.8 196C627.7 181 600.3 159 573 159C545.7 159 518.3 181 491 192C463.7 203 436.3 203 409 206C381.7 209 354.3 215 327 208C299.7 201 272.3 181 245.2 182C218 183 191 205 163.8 211C136.7 217 109.3 207 82 205C54.7 203 27.3 209 13.7 212L0 215Z" fill="#eb96bd"></path><path d="M0 499L13.7 493C27.3 487 54.7 475 82 470C109.3 465 136.7 467 163.8 448C191 429 218 389 245.2 378C272.3 367 299.7 385 327 391C354.3 397 381.7 391 409 385C436.3 379 463.7 373 491 377C518.3 381 545.7 395 573 399C600.3 403 627.7 397 654.8 393C682 389 709 387 736.2 387C763.3 387 790.7 389 818 396C845.3 403 872.7 415 886.3 421L900 427L900 365L886.3 355C872.7 345 845.3 325 818 317C790.7 309 763.3 313 736.2 320C709 327 682 337 654.8 332C627.7 327 600.3 307 573 296C545.7 285 518.3 283 491 282C463.7 281 436.3 281 409 290C381.7 299 354.3 317 327 313C299.7 309 272.3 283 245.2 292C218 301 191 345 163.8 373C136.7 401 109.3 413 82 422C54.7 431 27.3 437 13.7 440L0 443Z" fill="#de649f"></path><path d="M0 601L13.7 601C27.3 601 54.7 601 82 601C109.3 601 136.7 601 163.8 601C191 601 218 601 245.2 601C272.3 601 299.7 601 327 601C354.3 601 381.7 601 409 601C436.3 601 463.7 601 491 601C518.3 601 545.7 601 573 601C600.3 601 627.7 601 654.8 601C682 601 709 601 736.2 601C763.3 601 790.7 601 818 601C845.3 601 872.7 601 886.3 601L900 601L900 425L886.3 419C872.7 413 845.3 401 818 394C790.7 387 763.3 385 736.2 385C709 385 682 387 654.8 391C627.7 395 600.3 401 573 397C545.7 393 518.3 379 491 375C463.7 371 436.3 377 409 383C381.7 389 354.3 395 327 389C299.7 383 272.3 365 245.2 376C218 387 191 427 163.8 446C136.7 465 109.3 463 82 468C54.7 473 27.3 485 13.7 491L0 497Z" fill="#a74574"></path></svg>