<svg id="visual" viewBox="0 0 900 600" width="900" height="600" xmlns="http://www.w3.org/2000/svg" xmlns:xlink="http://www.w3.org/1999/xlink" version="1.1"><path d="M0 109L64 109L64 61L129 61L129 61L193 61L193 79L257 79L257 43L321 43L321 91L386 91L386 115L450 115L450 121L514 121L514 103L579 103L579 49L643 49L643 67L707 67L707 55L771 55L771 49L836 49L836 109L900 109L900 49L900 0L900 0L836 0L836 0L771 0L771 0L707 0L707 0L643 0L643 0L579 0L579 0L514 0L514 0L450 0L450 0L386 0L386 0L321 0L321 0L257 0L257 0L193 0L193 0L129 0L129 0L64 0L64 0L0 0Z" fill="#871a12"></path><path d="M0 211L64 211L64 115L129 115L129 97L193 97L193 127L257 127L257 97L321 97L321 127L386 127L386 163L450 163L450 199L514 199L514 163L579 163L579 85L643 85L643 133L707 133L707 133L771 133L771 133L836 133L836 157L900 157L900 103L900 47L900 107L836 107L836 47L771 47L771 53L707 53L707 65L643 65L643 47L579 47L579 101L514 101L514 119L450 119L450 113L386 113L386 89L321 89L321 41L257 41L257 77L193 77L193 59L129 59L129 59L64 59L64 107L0 107Z" fill="#7c121f"></path><path d="M0 409L64 409L64 397L129 397L129 229L193 229L193 361L257 361L257 265L321 265L321 367L386 367L386 427L450 427L450 379L514 379L514 247L579 247L579 265L643 265L643 247L707 247L707 301L771 301L771 391L836 391L836 307L900 307L900 295L900 101L900 155L836 155L836 131L771 131L771 131L707 131L707 131L643 131L643 83L579 83L579 161L514 161L514 197L450 197L450 161L386 161L386 125L321 125L321 95L257 95L257 125L193 125L193 95L129 95L129 113L64 113L64 209L0 209Z" fill="#6e1027"></path><path d="M0 487L64 487L64 475L129 475L129 349L193 349L193 463L257 463L257 403L321 403L321 505L386 505L386 505L450 505L450 463L514 463L514 355L579 355L579 433L643 433L643 343L707 343L707 457L771 457L771 499L836 499L836 397L900 397L900 397L900 293L900 305L836 305L836 389L771 389L771 299L707 299L707 245L643 245L643 263L579 263L579 245L514 245L514 377L450 377L450 425L386 425L386 365L321 365L321 263L257 263L257 359L193 359L193 227L129 227L129 395L64 395L64 407L0 407Z" fill="#5f122c"></path><path d="M0 601L64 601L64 601L129 601L129 601L193 601L193 601L257 601L257 601L321 601L321 601L386 601L386 601L450 601L450 601L514 601L514 601L579 601L579 601L643 601L643 601L707 601L707 601L771 601L771 601L836 601L836 601L900 601L900 601L900 395L900 395L836 395L836 497L771 497L771 455L707 455L707 341L643 341L643 431L579 431L579 353L514 353L514 461L450 461L450 503L386 503L386 503L321 503L321 401L257 401L257 461L193 461L193 347L129 347L129 473L64 473L64 485L0 485Z" fill="#4e142d"></path></svg>