<svg id="visual" viewBox="0 0 900 600" width="900" height="600" xmlns="http://www.w3.org/2000/svg" xmlns:xlink="http://www.w3.org/1999/xlink" version="1.1"><path d="M0 115L82 103L164 55L245 73L327 73L409 55L491 79L573 85L655 85L736 85L818 73L900 103L900 0L818 0L736 0L655 0L573 0L491 0L409 0L327 0L245 0L164 0L82 0L0 0Z" fill="#00cc8e"></path><path d="M0 157L82 145L164 115L245 145L327 127L409 133L491 115L573 121L655 175L736 133L818 175L900 157L900 101L818 71L736 83L655 83L573 83L491 77L409 53L327 71L245 71L164 53L82 101L0 113Z" fill="#009e80"></path><path d="M0 439L82 295L164 265L245 295L327 229L409 265L491 277L573 259L655 385L736 421L818 331L900 373L900 155L818 173L736 131L655 173L573 119L491 113L409 131L327 125L245 143L164 113L82 143L0 155Z" fill="#038373"></path><path d="M0 535L82 511L164 541L245 463L327 433L409 511L491 469L573 493L655 523L736 529L818 463L900 541L900 371L818 329L736 419L655 383L573 257L491 275L409 263L327 227L245 293L164 263L82 293L0 437Z" fill="#009e80"></path><path d="M0 601L82 601L164 601L245 601L327 601L409 601L491 601L573 601L655 601L736 601L818 601L900 601L900 539L818 461L736 527L655 521L573 491L491 467L409 509L327 431L245 461L164 539L82 509L0 533Z" fill="#00cc8e"></path></svg>